<?xml version="1.0" standalone="no"?>
<svg xmlns="http://www.w3.org/2000/svg" width="500" height="500"><defs><clipPath id="clip-path-dot-color"><circle cx="21.5" cy="173.5" r="9.5" transform="rotate(0,21.5,173.5)"/><circle cx="21.5" cy="192.5" r="9.5" transform="rotate(0,21.5,192.5)"/><circle cx="21.5" cy="287.5" r="9.5" transform="rotate(0,21.5,287.5)"/><circle cx="21.5" cy="306.5" r="9.5" transform="rotate(0,21.5,306.5)"/><circle cx="21.5" cy="325.5" r="9.5" transform="rotate(0,21.5,325.5)"/><circle cx="40.5" cy="173.5" r="9.5" transform="rotate(0,40.5,173.5)"/><circle cx="40.5" cy="192.5" r="9.5" transform="rotate(0,40.5,192.5)"/><circle cx="40.5" cy="230.5" r="9.5" transform="rotate(0,40.5,230.5)"/><circle cx="40.5" cy="249.5" r="9.5" transform="rotate(0,40.5,249.5)"/><circle cx="40.5" cy="268.5" r="9.5" transform="rotate(0,40.5,268.5)"/><circle cx="40.5" cy="287.5" r="9.5" transform="rotate(0,40.5,287.5)"/><circle cx="40.5" cy="325.5" r="9.5" transform="rotate(0,40.5,325.5)"/><circle cx="59.5" cy="192.5" r="9.5" transform="rotate(0,59.5,192.5)"/><circle cx="59.5" cy="211.5" r="9.5" transform="rotate(0,59.5,211.5)"/><circle cx="59.5" cy="249.5" r="9.5" transform="rotate(0,59.5,249.5)"/><circle cx="59.5" cy="268.5" r="9.5" transform="rotate(0,59.5,268.5)"/><circle cx="59.5" cy="306.5" r="9.5" transform="rotate(0,59.5,306.5)"/><circle cx="59.5" cy="325.5" r="9.5" transform="rotate(0,59.5,325.5)"/><circle cx="78.5" cy="192.5" r="9.5" transform="rotate(0,78.5,192.5)"/><circle cx="78.5" cy="211.5" r="9.5" transform="rotate(0,78.5,211.5)"/><circle cx="78.5" cy="230.5" r="9.5" transform="rotate(0,78.5,230.5)"/><circle cx="78.5" cy="249.5" r="9.5" transform="rotate(0,78.5,249.5)"/><circle cx="78.5" cy="325.5" r="9.5" transform="rotate(0,78.5,325.5)"/><circle cx="97.5" cy="325.5" r="9.5" transform="rotate(0,97.5,325.5)"/><circle cx="116.5" cy="211.5" r="9.5" transform="rotate(0,116.5,211.5)"/><circle cx="116.5" cy="249.5" r="9.5" transform="rotate(0,116.5,249.5)"/><circle cx="116.5" cy="325.5" r="9.5" transform="rotate(0,116.5,325.5)"/><circle cx="135.5" cy="173.5" r="9.5" transform="rotate(0,135.5,173.5)"/><circle cx="135.5" cy="211.5" r="9.5" transform="rotate(0,135.5,211.5)"/><circle cx="135.5" cy="249.5" r="9.5" transform="rotate(0,135.5,249.5)"/><circle cx="135.5" cy="287.5" r="9.5" transform="rotate(0,135.5,287.5)"/><circle cx="135.5" cy="325.5" r="9.5" transform="rotate(0,135.5,325.5)"/><circle cx="154.5" cy="192.5" r="9.5" transform="rotate(0,154.5,192.5)"/><circle cx="154.5" cy="211.5" r="9.5" transform="rotate(0,154.5,211.5)"/><circle cx="154.5" cy="230.5" r="9.5" transform="rotate(0,154.5,230.5)"/><circle cx="154.5" cy="287.5" r="9.5" transform="rotate(0,154.5,287.5)"/><circle cx="154.5" cy="325.5" r="9.5" transform="rotate(0,154.5,325.5)"/><circle cx="173.5" cy="40.5" r="9.5" transform="rotate(0,173.5,40.5)"/><circle cx="173.5" cy="135.5" r="9.5" transform="rotate(0,173.5,135.5)"/><circle cx="173.5" cy="154.5" r="9.5" transform="rotate(0,173.5,154.5)"/><circle cx="173.5" cy="173.5" r="9.5" transform="rotate(0,173.5,173.5)"/><circle cx="173.5" cy="192.5" r="9.5" transform="rotate(0,173.5,192.5)"/><circle cx="173.5" cy="230.5" r="9.5" transform="rotate(0,173.5,230.5)"/><circle cx="173.5" cy="249.5" r="9.5" transform="rotate(0,173.5,249.5)"/><circle cx="173.5" cy="344.5" r="9.5" transform="rotate(0,173.5,344.5)"/><circle cx="173.5" cy="458.5" r="9.5" transform="rotate(0,173.5,458.5)"/><circle cx="173.5" cy="477.5" r="9.5" transform="rotate(0,173.5,477.5)"/><circle cx="192.5" cy="21.5" r="9.5" transform="rotate(0,192.5,21.5)"/><circle cx="192.5" cy="78.5" r="9.5" transform="rotate(0,192.5,78.5)"/><circle cx="192.5" cy="154.5" r="9.5" transform="rotate(0,192.5,154.5)"/><circle cx="192.5" cy="211.5" r="9.5" transform="rotate(0,192.5,211.5)"/><circle cx="192.5" cy="249.5" r="9.5" transform="rotate(0,192.5,249.5)"/><circle cx="192.5" cy="268.5" r="9.5" transform="rotate(0,192.5,268.5)"/><circle cx="192.5" cy="306.5" r="9.5" transform="rotate(0,192.5,306.5)"/><circle cx="192.5" cy="344.5" r="9.5" transform="rotate(0,192.5,344.5)"/><circle cx="192.5" cy="382.5" r="9.5" transform="rotate(0,192.5,382.5)"/><circle cx="192.5" cy="401.5" r="9.5" transform="rotate(0,192.5,401.5)"/><circle cx="192.5" cy="420.5" r="9.5" transform="rotate(0,192.5,420.5)"/><circle cx="192.5" cy="439.5" r="9.5" transform="rotate(0,192.5,439.5)"/><circle cx="192.5" cy="458.5" r="9.5" transform="rotate(0,192.5,458.5)"/><circle cx="211.5" cy="21.5" r="9.5" transform="rotate(0,211.5,21.5)"/><circle cx="211.5" cy="78.5" r="9.5" transform="rotate(0,211.5,78.5)"/><circle cx="211.5" cy="97.5" r="9.5" transform="rotate(0,211.5,97.5)"/><circle cx="211.5" cy="116.5" r="9.5" transform="rotate(0,211.5,116.5)"/><circle cx="211.5" cy="135.5" r="9.5" transform="rotate(0,211.5,135.5)"/><circle cx="211.5" cy="154.5" r="9.5" transform="rotate(0,211.5,154.5)"/><circle cx="211.5" cy="173.5" r="9.5" transform="rotate(0,211.5,173.5)"/><circle cx="211.5" cy="192.5" r="9.5" transform="rotate(0,211.5,192.5)"/><circle cx="211.5" cy="230.5" r="9.5" transform="rotate(0,211.5,230.5)"/><circle cx="211.5" cy="249.5" r="9.5" transform="rotate(0,211.5,249.5)"/><circle cx="211.5" cy="268.5" r="9.5" transform="rotate(0,211.5,268.5)"/><circle cx="211.5" cy="287.5" r="9.5" transform="rotate(0,211.5,287.5)"/><circle cx="211.5" cy="306.5" r="9.5" transform="rotate(0,211.5,306.5)"/><circle cx="211.5" cy="344.5" r="9.5" transform="rotate(0,211.5,344.5)"/><circle cx="211.5" cy="363.5" r="9.5" transform="rotate(0,211.5,363.5)"/><circle cx="211.5" cy="420.5" r="9.5" transform="rotate(0,211.5,420.5)"/><circle cx="211.5" cy="458.5" r="9.5" transform="rotate(0,211.5,458.5)"/><circle cx="211.5" cy="477.5" r="9.5" transform="rotate(0,211.5,477.5)"/><circle cx="230.5" cy="78.5" r="9.5" transform="rotate(0,230.5,78.5)"/><circle cx="230.5" cy="97.5" r="9.5" transform="rotate(0,230.5,97.5)"/><circle cx="230.5" cy="192.5" r="9.5" transform="rotate(0,230.5,192.5)"/><circle cx="230.5" cy="211.5" r="9.5" transform="rotate(0,230.5,211.5)"/><circle cx="230.5" cy="249.5" r="9.5" transform="rotate(0,230.5,249.5)"/><circle cx="230.5" cy="268.5" r="9.5" transform="rotate(0,230.5,268.5)"/><circle cx="230.5" cy="306.5" r="9.5" transform="rotate(0,230.5,306.5)"/><circle cx="230.5" cy="325.5" r="9.5" transform="rotate(0,230.5,325.5)"/><circle cx="230.5" cy="344.5" r="9.5" transform="rotate(0,230.5,344.5)"/><circle cx="230.5" cy="363.5" r="9.5" transform="rotate(0,230.5,363.5)"/><circle cx="230.5" cy="401.5" r="9.5" transform="rotate(0,230.5,401.5)"/><circle cx="230.5" cy="420.5" r="9.5" transform="rotate(0,230.5,420.5)"/><circle cx="230.5" cy="477.5" r="9.5" transform="rotate(0,230.5,477.5)"/><circle cx="249.5" cy="40.5" r="9.5" transform="rotate(0,249.5,40.5)"/><circle cx="249.5" cy="97.5" r="9.5" transform="rotate(0,249.5,97.5)"/><circle cx="249.5" cy="135.5" r="9.5" transform="rotate(0,249.5,135.5)"/><circle cx="249.5" cy="154.5" r="9.5" transform="rotate(0,249.5,154.5)"/><circle cx="249.5" cy="173.5" r="9.5" transform="rotate(0,249.5,173.5)"/><circle cx="249.5" cy="192.5" r="9.5" transform="rotate(0,249.5,192.5)"/><circle cx="249.5" cy="211.5" r="9.5" transform="rotate(0,249.5,211.5)"/><circle cx="249.5" cy="249.5" r="9.5" transform="rotate(0,249.5,249.5)"/><circle cx="249.5" cy="268.5" r="9.5" transform="rotate(0,249.5,268.5)"/><circle cx="249.5" cy="325.5" r="9.5" transform="rotate(0,249.5,325.5)"/><circle cx="249.5" cy="363.5" r="9.5" transform="rotate(0,249.5,363.5)"/><circle cx="249.5" cy="477.5" r="9.5" transform="rotate(0,249.5,477.5)"/><circle cx="268.5" cy="21.5" r="9.5" transform="rotate(0,268.5,21.5)"/><circle cx="268.5" cy="59.5" r="9.5" transform="rotate(0,268.5,59.5)"/><circle cx="268.5" cy="78.5" r="9.5" transform="rotate(0,268.5,78.5)"/><circle cx="268.5" cy="116.5" r="9.5" transform="rotate(0,268.5,116.5)"/><circle cx="268.5" cy="173.5" r="9.5" transform="rotate(0,268.5,173.5)"/><circle cx="268.5" cy="192.5" r="9.5" transform="rotate(0,268.5,192.5)"/><circle cx="268.5" cy="230.5" r="9.5" transform="rotate(0,268.5,230.5)"/><circle cx="268.5" cy="268.5" r="9.5" transform="rotate(0,268.5,268.5)"/><circle cx="268.5" cy="306.5" r="9.5" transform="rotate(0,268.5,306.5)"/><circle cx="268.5" cy="344.5" r="9.5" transform="rotate(0,268.5,344.5)"/><circle cx="268.5" cy="382.5" r="9.5" transform="rotate(0,268.5,382.5)"/><circle cx="268.5" cy="458.5" r="9.5" transform="rotate(0,268.5,458.5)"/><circle cx="287.5" cy="21.5" r="9.5" transform="rotate(0,287.5,21.5)"/><circle cx="287.5" cy="97.5" r="9.5" transform="rotate(0,287.5,97.5)"/><circle cx="287.5" cy="116.5" r="9.5" transform="rotate(0,287.5,116.5)"/><circle cx="287.5" cy="135.5" r="9.5" transform="rotate(0,287.5,135.5)"/><circle cx="287.5" cy="173.5" r="9.5" transform="rotate(0,287.5,173.5)"/><circle cx="287.5" cy="249.5" r="9.5" transform="rotate(0,287.5,249.5)"/><circle cx="287.5" cy="306.5" r="9.5" transform="rotate(0,287.5,306.5)"/><circle cx="287.5" cy="325.5" r="9.5" transform="rotate(0,287.5,325.5)"/><circle cx="287.5" cy="382.5" r="9.5" transform="rotate(0,287.5,382.5)"/><circle cx="287.5" cy="401.5" r="9.5" transform="rotate(0,287.5,401.5)"/><circle cx="287.5" cy="420.5" r="9.5" transform="rotate(0,287.5,420.5)"/><circle cx="287.5" cy="458.5" r="9.5" transform="rotate(0,287.5,458.5)"/><circle cx="287.5" cy="477.5" r="9.5" transform="rotate(0,287.5,477.5)"/><circle cx="306.5" cy="21.5" r="9.5" transform="rotate(0,306.5,21.5)"/><circle cx="306.5" cy="59.5" r="9.5" transform="rotate(0,306.5,59.5)"/><circle cx="306.5" cy="78.5" r="9.5" transform="rotate(0,306.5,78.5)"/><circle cx="306.5" cy="97.5" r="9.5" transform="rotate(0,306.5,97.5)"/><circle cx="306.5" cy="116.5" r="9.5" transform="rotate(0,306.5,116.5)"/><circle cx="306.5" cy="173.5" r="9.5" transform="rotate(0,306.5,173.5)"/><circle cx="306.5" cy="230.5" r="9.5" transform="rotate(0,306.5,230.5)"/><circle cx="306.5" cy="249.5" r="9.5" transform="rotate(0,306.5,249.5)"/><circle cx="306.5" cy="268.5" r="9.5" transform="rotate(0,306.5,268.5)"/><circle cx="306.5" cy="306.5" r="9.5" transform="rotate(0,306.5,306.5)"/><circle cx="306.5" cy="344.5" r="9.5" transform="rotate(0,306.5,344.5)"/><circle cx="306.5" cy="363.5" r="9.5" transform="rotate(0,306.5,363.5)"/><circle cx="306.5" cy="382.5" r="9.5" transform="rotate(0,306.5,382.5)"/><circle cx="306.5" cy="420.5" r="9.5" transform="rotate(0,306.5,420.5)"/><circle cx="306.5" cy="439.5" r="9.5" transform="rotate(0,306.5,439.5)"/><circle cx="306.5" cy="477.5" r="9.5" transform="rotate(0,306.5,477.5)"/><circle cx="325.5" cy="21.5" r="9.5" transform="rotate(0,325.5,21.5)"/><circle cx="325.5" cy="59.5" r="9.5" transform="rotate(0,325.5,59.5)"/><circle cx="325.5" cy="78.5" r="9.5" transform="rotate(0,325.5,78.5)"/><circle cx="325.5" cy="97.5" r="9.5" transform="rotate(0,325.5,97.5)"/><circle cx="325.5" cy="116.5" r="9.5" transform="rotate(0,325.5,116.5)"/><circle cx="325.5" cy="135.5" r="9.5" transform="rotate(0,325.5,135.5)"/><circle cx="325.5" cy="173.5" r="9.5" transform="rotate(0,325.5,173.5)"/><circle cx="325.5" cy="230.5" r="9.5" transform="rotate(0,325.5,230.5)"/><circle cx="325.5" cy="287.5" r="9.5" transform="rotate(0,325.5,287.5)"/><circle cx="325.5" cy="306.5" r="9.5" transform="rotate(0,325.5,306.5)"/><circle cx="325.5" cy="325.5" r="9.5" transform="rotate(0,325.5,325.5)"/><circle cx="325.5" cy="344.5" r="9.5" transform="rotate(0,325.5,344.5)"/><circle cx="325.5" cy="363.5" r="9.5" transform="rotate(0,325.5,363.5)"/><circle cx="325.5" cy="382.5" r="9.5" transform="rotate(0,325.5,382.5)"/><circle cx="325.5" cy="401.5" r="9.5" transform="rotate(0,325.5,401.5)"/><circle cx="325.5" cy="439.5" r="9.5" transform="rotate(0,325.5,439.5)"/><circle cx="344.5" cy="173.5" r="9.5" transform="rotate(0,344.5,173.5)"/><circle cx="344.5" cy="230.5" r="9.5" transform="rotate(0,344.5,230.5)"/><circle cx="344.5" cy="249.5" r="9.5" transform="rotate(0,344.5,249.5)"/><circle cx="344.5" cy="268.5" r="9.5" transform="rotate(0,344.5,268.5)"/><circle cx="344.5" cy="325.5" r="9.5" transform="rotate(0,344.5,325.5)"/><circle cx="344.5" cy="401.5" r="9.5" transform="rotate(0,344.5,401.5)"/><circle cx="363.5" cy="173.5" r="9.5" transform="rotate(0,363.5,173.5)"/><circle cx="363.5" cy="192.5" r="9.5" transform="rotate(0,363.5,192.5)"/><circle cx="363.5" cy="230.5" r="9.5" transform="rotate(0,363.5,230.5)"/><circle cx="363.5" cy="325.5" r="9.5" transform="rotate(0,363.5,325.5)"/><circle cx="363.5" cy="363.5" r="9.5" transform="rotate(0,363.5,363.5)"/><circle cx="363.5" cy="401.5" r="9.5" transform="rotate(0,363.5,401.5)"/><circle cx="363.5" cy="477.5" r="9.5" transform="rotate(0,363.5,477.5)"/><circle cx="382.5" cy="192.5" r="9.5" transform="rotate(0,382.5,192.5)"/><circle cx="382.5" cy="211.5" r="9.5" transform="rotate(0,382.5,211.5)"/><circle cx="382.5" cy="249.5" r="9.5" transform="rotate(0,382.5,249.5)"/><circle cx="382.5" cy="306.5" r="9.5" transform="rotate(0,382.5,306.5)"/><circle cx="382.5" cy="325.5" r="9.5" transform="rotate(0,382.5,325.5)"/><circle cx="382.5" cy="401.5" r="9.5" transform="rotate(0,382.5,401.5)"/><circle cx="382.5" cy="458.5" r="9.5" transform="rotate(0,382.5,458.5)"/><circle cx="382.5" cy="477.5" r="9.5" transform="rotate(0,382.5,477.5)"/><circle cx="401.5" cy="192.5" r="9.5" transform="rotate(0,401.5,192.5)"/><circle cx="401.5" cy="230.5" r="9.5" transform="rotate(0,401.5,230.5)"/><circle cx="401.5" cy="268.5" r="9.5" transform="rotate(0,401.5,268.5)"/><circle cx="401.5" cy="287.5" r="9.5" transform="rotate(0,401.5,287.5)"/><circle cx="401.5" cy="306.5" r="9.5" transform="rotate(0,401.5,306.5)"/><circle cx="401.5" cy="325.5" r="9.5" transform="rotate(0,401.5,325.5)"/><circle cx="401.5" cy="344.5" r="9.5" transform="rotate(0,401.5,344.5)"/><circle cx="401.5" cy="363.5" r="9.5" transform="rotate(0,401.5,363.5)"/><circle cx="401.5" cy="382.5" r="9.5" transform="rotate(0,401.5,382.5)"/><circle cx="401.5" cy="401.5" r="9.5" transform="rotate(0,401.5,401.5)"/><circle cx="401.5" cy="439.5" r="9.5" transform="rotate(0,401.5,439.5)"/><circle cx="401.5" cy="477.5" r="9.5" transform="rotate(0,401.5,477.5)"/><circle cx="420.5" cy="344.5" r="9.5" transform="rotate(0,420.5,344.5)"/><circle cx="420.5" cy="363.5" r="9.5" transform="rotate(0,420.5,363.5)"/><circle cx="420.5" cy="458.5" r="9.5" transform="rotate(0,420.5,458.5)"/><circle cx="420.5" cy="477.5" r="9.5" transform="rotate(0,420.5,477.5)"/><circle cx="439.5" cy="230.5" r="9.5" transform="rotate(0,439.5,230.5)"/><circle cx="439.5" cy="249.5" r="9.5" transform="rotate(0,439.5,249.5)"/><circle cx="439.5" cy="287.5" r="9.5" transform="rotate(0,439.5,287.5)"/><circle cx="439.5" cy="325.5" r="9.5" transform="rotate(0,439.5,325.5)"/><circle cx="439.5" cy="420.5" r="9.5" transform="rotate(0,439.5,420.5)"/><circle cx="439.5" cy="439.5" r="9.5" transform="rotate(0,439.5,439.5)"/><circle cx="439.5" cy="477.5" r="9.5" transform="rotate(0,439.5,477.5)"/><circle cx="458.5" cy="173.5" r="9.5" transform="rotate(0,458.5,173.5)"/><circle cx="458.5" cy="192.5" r="9.5" transform="rotate(0,458.5,192.5)"/><circle cx="458.5" cy="230.5" r="9.5" transform="rotate(0,458.5,230.5)"/><circle cx="458.5" cy="249.5" r="9.5" transform="rotate(0,458.5,249.5)"/><circle cx="458.5" cy="268.5" r="9.5" transform="rotate(0,458.5,268.5)"/><circle cx="458.5" cy="325.5" r="9.5" transform="rotate(0,458.5,325.5)"/><circle cx="458.5" cy="363.5" r="9.5" transform="rotate(0,458.5,363.5)"/><circle cx="458.5" cy="382.5" r="9.5" transform="rotate(0,458.5,382.5)"/><circle cx="458.5" cy="401.5" r="9.5" transform="rotate(0,458.5,401.5)"/><circle cx="458.5" cy="477.5" r="9.5" transform="rotate(0,458.5,477.5)"/><circle cx="477.5" cy="192.5" r="9.5" transform="rotate(0,477.5,192.5)"/><circle cx="477.5" cy="249.5" r="9.5" transform="rotate(0,477.5,249.5)"/><circle cx="477.5" cy="268.5" r="9.5" transform="rotate(0,477.5,268.5)"/><circle cx="477.5" cy="287.5" r="9.5" transform="rotate(0,477.5,287.5)"/><circle cx="477.5" cy="325.5" r="9.5" transform="rotate(0,477.5,325.5)"/><circle cx="477.5" cy="363.5" r="9.5" transform="rotate(0,477.5,363.5)"/><circle cx="477.5" cy="420.5" r="9.5" transform="rotate(0,477.5,420.5)"/><circle cx="477.5" cy="477.5" r="9.5" transform="rotate(0,477.5,477.5)"/></clipPath><clipPath id="clip-path-corners-square-color-0-0"><path clip-rule="evenodd" d="M 12 59.5v 38a 47.5 47.5, 0, 0, 0, 47.5 47.5h 38a 47.5 47.5, 0, 0, 0, 47.5 -47.5v -38a 47.5 47.5, 0, 0, 0, -47.5 -47.5h -38a 47.5 47.5, 0, 0, 0, -47.5 47.5M 59.5 31h 38a 28.5 28.5, 0, 0, 1, 28.5 28.5v 38a 28.5 28.5, 0, 0, 1, -28.5 28.5h -38a 28.5 28.5, 0, 0, 1, -28.5 -28.5v -38a 28.5 28.5, 0, 0, 1, 28.5 -28.5" transform="rotate(0,78.5,78.5)"/></clipPath><clipPath id="clip-path-corners-dot-color-0-0"><circle cx="78.5" cy="78.5" r="28.5" transform="rotate(0,78.5,78.5)"/></clipPath><clipPath id="clip-path-corners-square-color-1-0"><path clip-rule="evenodd" d="M 354 59.5v 38a 47.5 47.5, 0, 0, 0, 47.5 47.5h 38a 47.5 47.5, 0, 0, 0, 47.5 -47.5v -38a 47.5 47.5, 0, 0, 0, -47.5 -47.5h -38a 47.5 47.5, 0, 0, 0, -47.5 47.5M 401.5 31h 38a 28.5 28.5, 0, 0, 1, 28.5 28.5v 38a 28.5 28.5, 0, 0, 1, -28.5 28.5h -38a 28.5 28.5, 0, 0, 1, -28.5 -28.5v -38a 28.5 28.5, 0, 0, 1, 28.5 -28.5" transform="rotate(90,420.5,78.5)"/></clipPath><clipPath id="clip-path-corners-dot-color-1-0"><circle cx="420.5" cy="78.5" r="28.5" transform="rotate(90,420.5,78.5)"/></clipPath><clipPath id="clip-path-corners-square-color-0-1"><path clip-rule="evenodd" d="M 12 401.5v 38a 47.5 47.5, 0, 0, 0, 47.5 47.5h 38a 47.5 47.5, 0, 0, 0, 47.5 -47.5v -38a 47.5 47.5, 0, 0, 0, -47.5 -47.5h -38a 47.5 47.5, 0, 0, 0, -47.5 47.5M 59.5 373h 38a 28.5 28.5, 0, 0, 1, 28.5 28.5v 38a 28.5 28.5, 0, 0, 1, -28.5 28.5h -38a 28.5 28.5, 0, 0, 1, -28.5 -28.5v -38a 28.5 28.5, 0, 0, 1, 28.5 -28.5" transform="rotate(-90,78.5,420.5)"/></clipPath><clipPath id="clip-path-corners-dot-color-0-1"><circle cx="78.5" cy="420.5" r="28.5" transform="rotate(-90,78.5,420.5)"/></clipPath></defs><rect x="0" y="0" height="500" width="500" clip-path="url('#clip-path-background-color')" fill="#fff"/><rect x="0" y="0" height="500" width="500" clip-path="url('#clip-path-dot-color')" fill="#000000"/><rect x="12" y="12" height="133" width="133" clip-path="url('#clip-path-corners-square-color-0-0')" fill="#000000"/><rect x="50" y="50" height="57" width="57" clip-path="url('#clip-path-corners-dot-color-0-0')" fill="#000000"/><rect x="354" y="12" height="133" width="133" clip-path="url('#clip-path-corners-square-color-1-0')" fill="#000000"/><rect x="392" y="50" height="57" width="57" clip-path="url('#clip-path-corners-dot-color-1-0')" fill="#000000"/><rect x="12" y="354" height="133" width="133" clip-path="url('#clip-path-corners-square-color-0-1')" fill="#000000"/><rect x="50" y="392" height="57" width="57" clip-path="url('#clip-path-corners-dot-color-0-1')" fill="#000000"/></svg>